# xmcd CD database file
#
# Track frame offsets:
#	150
#	16779
#	35477
#	56412
#	77020
#	90444
#	117008
#	135865
#	153652
#	173835
#	190795
#	210345
#
# Disc length: 3096 seconds
#
# Revision: 0
# Processed by: cddbd v1.5.2PL0 Copyright (c) Steve Scherf et al.
# Submitted via: CDex 1.51
#
DISCID=840c160c
DTITLE=mare wakefield -  take me home
DYEAR=2005
DGENRE=New Age
TTITLE0=Ill Drive
TTITLE1=Pack Up Your Stuff
TTITLE2=Cold River
TTITLE3=Texas
TTITLE4=Josephine
TTITLE5=Leroy
TTITLE6=Love vs. The USA
TTITLE7=Fourth of July
TTITLE8=Lullaby
TTITLE9=Youre Not My Boyfriend
TTITLE10=You Dont Know
TTITLE11=Take Me Home
EXTD=YEAR: 2005
EXTT0=
EXTT1=
EXTT2=
EXTT3=
EXTT4=
EXTT5=
EXTT6=
EXTT7=
EXTT8=
EXTT9=
EXTT10=
EXTT11=
PLAYORDER=
